solid exported
	facet normal 0 2.220446049250313e-16 1
		outer loop
			vertex -10 -23.282886505126953 5.169839335545257e-15
			vertex 10 -23.282886505126953 5.169839335545257e-15
			vertex 10 23.282886505126953 -5.169839335545257e-15
		endloop
	endfacet
	facet normal 0 2.220446049250313e-16 1
		outer loop
			vertex -10 -23.282886505126953 5.169839335545257e-15
			vertex 10 23.282886505126953 -5.169839335545257e-15
			vertex -10 23.282886505126953 -5.169839335545257e-15
		endloop
	endfacet
endsolid exported
